<?xml version="1.0" standalone="no"?><!DOCTYPE svg PUBLIC "-//W3C//DTD SVG 1.1//EN" "http://www.w3.org/Graphics/SVG/1.1/DTD/svg11.dtd"><svg t="1735030108747" class="icon" viewBox="0 0 1024 1024" version="1.1" xmlns="http://www.w3.org/2000/svg" p-id="7719" width="200" height="200" xmlns:xlink="http://www.w3.org/1999/xlink"><path d="M1012.093023 501.950512c0 276.194233-223.898791 500.093023-500.093023 500.093023s-500.093023-223.898791-500.093023-500.093023 223.898791-500.093023 500.093023-500.093024 500.093023 223.898791 500.093023 500.093024zM471.587721 118.641116c-17.050791 17.146047-34.625488 44.389209-50.41414 81.848558-27.219349 64.702512-46.31814 153.242791-50.96186 253.856745H488.186047v95.255814h-117.974326c4.643721 100.566326 23.742512 189.106605 50.96186 253.809116 15.788651 37.459349 33.339535 64.702512 50.41414 81.848558 16.907907 16.979349 30.505674 21.527814 40.412279 21.527814 9.906605 0 23.504372-4.548465 40.412279-21.527814 17.050791-17.146047 34.625488-44.389209 50.41414-81.848558 27.219349-64.702512 46.31814-153.242791 50.96186-253.83293H535.813953v-95.255814h117.974326c-4.643721-100.59014-23.742512-189.130419-50.96186-253.832931-15.788651-37.459349-33.339535-64.702512-50.41414-81.848558-16.907907-16.955535-30.505674-21.527814-40.412279-21.527814-9.906605 0-23.504372 4.572279-40.412279 21.527814z m-196.72707 335.681489c4.691349-111.211163 25.695256-212.777674 58.534698-290.792186 4.619907-10.978233 9.525581-21.646884 14.764651-31.886884-128.11907 56.772465-221.279256 178.080744-238.234791 322.67907h164.935442z m-164.935442 95.255814c16.955535 144.598326 110.115721 265.906605 238.210977 322.679069-5.215256-10.24-10.12093-20.908651-14.764651-31.886883-32.839442-78.014512-53.819535-179.557209-58.510884-290.768372H109.925209z m639.21414 0c-4.691349 111.211163-25.671442 212.777674-58.534698 290.792186-4.619907 10.978233-9.525581 21.646884-14.764651 31.910697 128.11907-56.796279 221.279256-178.104558 238.234791-322.679069h-164.935442z m164.935442-95.255814c-16.955535-144.598326-110.115721-265.906605-238.210977-322.67907 5.191442 10.24 10.12093 20.908651 14.764651 31.886884 32.815628 78.014512 53.819535 179.557209 58.510884 290.792186h164.935442z" p-id="7720" fill="#ffffff"></path></svg>